<mxfile host="app.diagrams.net" agent="Mozilla/5.0 (Windows NT 10.0; Win64; x64) AppleWebKit/537.36 (KHTML, like Gecko) Chrome/141.0.0.0 Safari/537.36" version="28.2.8">
  <diagram name="Page-1" id="UvDNS6VYy8duoHu9Zwp2">
    <mxGraphModel dx="1408" dy="767" grid="1" gridSize="10" guides="1" tooltips="1" connect="1" arrows="1" fold="1" page="1" pageScale="1" pageWidth="850" pageHeight="1100" math="0" shadow="0">
      <root>
        <mxCell id="0" />
        <mxCell id="1" parent="0" />
        <mxCell id="GNLq8vc7deQluVwuhwFe-1" value="" style="rounded=0;whiteSpace=wrap;html=1;" parent="1" vertex="1">
          <mxGeometry x="60" y="170" width="120" height="380" as="geometry" />
        </mxCell>
        <mxCell id="GNLq8vc7deQluVwuhwFe-2" value="Sources&lt;div&gt;&lt;br&gt;&lt;/div&gt;" style="rounded=0;whiteSpace=wrap;html=1;strokeColor=none;" parent="1" vertex="1">
          <mxGeometry x="90" y="140" width="80" height="50" as="geometry" />
        </mxCell>
        <mxCell id="GNLq8vc7deQluVwuhwFe-16" style="edgeStyle=orthogonalEdgeStyle;rounded=0;orthogonalLoop=1;jettySize=auto;html=1;entryX=0;entryY=0.75;entryDx=0;entryDy=0;" parent="1" source="GNLq8vc7deQluVwuhwFe-3" target="GNLq8vc7deQluVwuhwFe-12" edge="1">
          <mxGeometry relative="1" as="geometry">
            <Array as="points">
              <mxPoint x="220" y="246" />
              <mxPoint x="220" y="233" />
            </Array>
          </mxGeometry>
        </mxCell>
        <mxCell id="GNLq8vc7deQluVwuhwFe-17" style="edgeStyle=orthogonalEdgeStyle;rounded=0;orthogonalLoop=1;jettySize=auto;html=1;entryX=0;entryY=0.5;entryDx=0;entryDy=0;" parent="1" source="GNLq8vc7deQluVwuhwFe-3" target="GNLq8vc7deQluVwuhwFe-14" edge="1">
          <mxGeometry relative="1" as="geometry" />
        </mxCell>
        <mxCell id="GNLq8vc7deQluVwuhwFe-18" style="edgeStyle=orthogonalEdgeStyle;rounded=0;orthogonalLoop=1;jettySize=auto;html=1;entryX=0;entryY=0.5;entryDx=0;entryDy=0;" parent="1" source="GNLq8vc7deQluVwuhwFe-3" target="GNLq8vc7deQluVwuhwFe-13" edge="1">
          <mxGeometry relative="1" as="geometry" />
        </mxCell>
        <mxCell id="GNLq8vc7deQluVwuhwFe-3" value="" style="image;aspect=fixed;html=1;points=[];align=center;fontSize=12;image=img/lib/azure2/general/Folder_Blank.svg;" parent="1" vertex="1">
          <mxGeometry x="80" y="220" width="64" height="51.94" as="geometry" />
        </mxCell>
        <mxCell id="GNLq8vc7deQluVwuhwFe-24" style="edgeStyle=orthogonalEdgeStyle;rounded=0;orthogonalLoop=1;jettySize=auto;html=1;entryX=0;entryY=0.75;entryDx=0;entryDy=0;" parent="1" source="GNLq8vc7deQluVwuhwFe-4" target="GNLq8vc7deQluVwuhwFe-23" edge="1">
          <mxGeometry relative="1" as="geometry" />
        </mxCell>
        <mxCell id="GNLq8vc7deQluVwuhwFe-25" style="edgeStyle=orthogonalEdgeStyle;rounded=0;orthogonalLoop=1;jettySize=auto;html=1;entryX=0;entryY=0.5;entryDx=0;entryDy=0;" parent="1" source="GNLq8vc7deQluVwuhwFe-4" target="GNLq8vc7deQluVwuhwFe-21" edge="1">
          <mxGeometry relative="1" as="geometry" />
        </mxCell>
        <mxCell id="GNLq8vc7deQluVwuhwFe-26" style="edgeStyle=orthogonalEdgeStyle;rounded=0;orthogonalLoop=1;jettySize=auto;html=1;entryX=0;entryY=0.5;entryDx=0;entryDy=0;" parent="1" source="GNLq8vc7deQluVwuhwFe-4" target="GNLq8vc7deQluVwuhwFe-22" edge="1">
          <mxGeometry relative="1" as="geometry" />
        </mxCell>
        <mxCell id="GNLq8vc7deQluVwuhwFe-4" value="" style="image;aspect=fixed;html=1;points=[];align=center;fontSize=12;image=img/lib/azure2/general/Folder_Blank.svg;" parent="1" vertex="1">
          <mxGeometry x="80" y="390" width="69" height="56.00000000000001" as="geometry" />
        </mxCell>
        <mxCell id="GNLq8vc7deQluVwuhwFe-6" value="CRM&lt;div&gt;&lt;br&gt;&lt;/div&gt;" style="text;html=1;whiteSpace=wrap;strokeColor=none;fillColor=none;align=center;verticalAlign=middle;rounded=0;" parent="1" vertex="1">
          <mxGeometry x="84.5" y="270" width="60" height="30" as="geometry" />
        </mxCell>
        <mxCell id="GNLq8vc7deQluVwuhwFe-9" value="ERP&lt;div&gt;&lt;br&gt;&lt;/div&gt;&lt;div&gt;&lt;br&gt;&lt;/div&gt;" style="text;html=1;whiteSpace=wrap;strokeColor=none;fillColor=none;align=center;verticalAlign=middle;rounded=0;" parent="1" vertex="1">
          <mxGeometry x="84" y="446" width="60" height="30" as="geometry" />
        </mxCell>
        <mxCell id="GNLq8vc7deQluVwuhwFe-10" value="&lt;b&gt;Bronze Layer&amp;nbsp;&lt;/b&gt;" style="rounded=0;whiteSpace=wrap;html=1;fillColor=#ffe6cc;strokeColor=#d79b00;" parent="1" vertex="1">
          <mxGeometry x="280" y="140" width="120" height="30" as="geometry" />
        </mxCell>
        <mxCell id="GNLq8vc7deQluVwuhwFe-11" value="" style="rounded=1;whiteSpace=wrap;html=1;" parent="1" vertex="1">
          <mxGeometry x="280" y="180" width="120" height="360" as="geometry" />
        </mxCell>
        <mxCell id="GNLq8vc7deQluVwuhwFe-12" value="crm_sales_details" style="rounded=1;whiteSpace=wrap;html=1;fillColor=#ffe6cc;strokeColor=#d79b00;" parent="1" vertex="1">
          <mxGeometry x="280" y="210" width="120" height="30" as="geometry" />
        </mxCell>
        <mxCell id="GNLq8vc7deQluVwuhwFe-13" value="crm_cust_info" style="rounded=1;whiteSpace=wrap;html=1;fillColor=#ffe6cc;strokeColor=#d79b00;" parent="1" vertex="1">
          <mxGeometry x="280" y="270" width="120" height="30" as="geometry" />
        </mxCell>
        <mxCell id="GNLq8vc7deQluVwuhwFe-14" value="crm_prd_info" style="rounded=1;whiteSpace=wrap;html=1;fillColor=#ffe6cc;strokeColor=#d79b00;" parent="1" vertex="1">
          <mxGeometry x="280" y="335" width="120" height="30" as="geometry" />
        </mxCell>
        <mxCell id="GNLq8vc7deQluVwuhwFe-21" value="erp_cust_az12" style="rounded=1;whiteSpace=wrap;html=1;fillColor=#ffe6cc;strokeColor=#d79b00;" parent="1" vertex="1">
          <mxGeometry x="280" y="390" width="120" height="30" as="geometry" />
        </mxCell>
        <mxCell id="GNLq8vc7deQluVwuhwFe-22" value="erp_px_cat_g1v2&amp;nbsp;&amp;nbsp;" style="rounded=1;whiteSpace=wrap;html=1;fillColor=#ffe6cc;strokeColor=#d79b00;" parent="1" vertex="1">
          <mxGeometry x="280" y="476" width="120" height="30" as="geometry" />
        </mxCell>
        <mxCell id="GNLq8vc7deQluVwuhwFe-23" value="erp_loc_a101" style="rounded=1;whiteSpace=wrap;html=1;fillColor=#ffe6cc;strokeColor=#d79b00;" parent="1" vertex="1">
          <mxGeometry x="280" y="430" width="120" height="30" as="geometry" />
        </mxCell>
      </root>
    </mxGraphModel>
  </diagram>
</mxfile>
